<svg width="214" height="92" viewBox="0 0 214 92" fill="none" xmlns="http://www.w3.org/2000/svg">
<path d="M22.5399 11.0314C22.5399 12.5293 22.237 13.9321 21.6376 15.2459C21.0381 16.5598 20.2115 17.7087 19.164 18.6988C18.1165 19.689 16.9049 20.476 15.5167 21.06C14.1285 21.6439 12.6519 21.9359 11.087 21.9359C9.52204 21.9359 8.13381 21.6439 6.80867 21.06C5.48354 20.476 4.30984 19.689 3.28129 18.6988C2.25904 17.7087 1.45134 16.5598 0.870803 15.2459C0.290268 13.9321 0 12.5293 0 11.0314C0 9.53348 0.290268 8.06093 0.870803 6.72802C1.45134 5.39511 2.25904 4.22088 3.28129 3.21168C4.30353 2.20247 5.48354 1.41542 6.80867 0.850523C8.13381 0.285624 9.5599 0 11.087 0C12.614 0 14.1285 0.285624 15.5167 0.850523C16.9049 1.41542 18.1165 2.20247 19.164 3.21168C20.2052 4.22088 21.0318 5.39511 21.6376 6.72802C22.237 8.06093 22.5399 9.49539 22.5399 11.0314Z" fill="white"/>
<path d="M20.6156 47.0377V91.0998C10.2985 91.0998 1.9375 82.6898 1.9375 72.3122V28.25C12.2546 28.25 20.6156 36.66 20.6156 47.0377Z" fill="white"/>
<path d="M213.243 11.0314C213.243 12.5293 212.94 13.9321 212.341 15.2459C211.741 16.5598 210.915 17.7087 209.867 18.6988C208.82 19.689 207.608 20.476 206.22 21.06C204.832 21.6439 203.355 21.9359 201.79 21.9359C200.225 21.9359 198.837 21.6439 197.512 21.06C196.187 20.476 195.013 19.689 193.984 18.6988C192.962 17.7087 192.154 16.5598 191.574 15.2459C190.993 13.9321 190.703 12.5293 190.703 11.0314C190.703 9.53348 190.993 8.06093 191.574 6.72802C192.154 5.39511 192.962 4.22088 193.984 3.21168C195.007 2.20247 196.187 1.41542 197.512 0.850523C198.837 0.285624 200.263 0 201.79 0C203.317 0 204.832 0.285624 206.22 0.850523C207.608 1.41542 208.82 2.20247 209.867 3.21168C210.908 4.22088 211.735 5.39511 212.341 6.72802C212.946 8.06093 213.243 9.49539 213.243 11.0314Z" fill="white"/>
<path d="M211.35 28.25V72.3122C211.35 82.6898 202.989 91.0998 192.672 91.0998V47.0377C192.672 36.66 201.033 28.25 211.35 28.25Z" fill="white"/>
<path d="M79.1438 31.5251C79.4656 30.5985 80.0651 29.8178 80.9485 29.1894C81.8319 28.561 82.8794 28.25 84.0847 28.25H100.794L75.749 91.1062H57.3107L32.2656 28.25H48.8046C50.1297 28.25 51.2466 28.561 52.1489 29.1894C53.0513 29.8178 53.6634 30.5921 53.9852 31.5251L62.2515 54.4956C63.0529 56.5584 63.8354 58.8117 64.5989 61.2554C65.3624 63.699 66.0881 66.2569 66.7696 68.9228C67.3312 66.2569 67.9622 63.699 68.6689 61.2554C69.3694 58.8117 70.1266 56.5584 70.928 54.4956L79.1438 31.5251Z" fill="white"/>
<path d="M142.327 54.4956C143.128 56.5584 143.886 58.8117 144.586 61.2554C145.286 63.699 145.924 66.2569 146.485 68.9228C147.167 66.2569 147.893 63.699 148.656 61.2554C149.42 58.8117 150.202 56.5584 151.003 54.4956L159.27 31.5251C159.592 30.5985 160.204 29.8178 161.106 29.1894C162.008 28.561 163.125 28.25 164.45 28.25H180.989L155.944 91.1062H137.506L112.461 28.25H129.17C130.375 28.25 131.423 28.561 132.306 29.1894C133.19 29.8178 133.796 30.5921 134.111 31.5251L142.327 54.4956Z" fill="white"/>
</svg>
