<svg width="18" height="19" viewBox="0 0 18 19" fill="none" xmlns="http://www.w3.org/2000/svg">
<path d="M4.39844 18.3984H0.765625V6.71875H4.39844V18.3984ZM2.5625 5.15625C1.42969 5.15625 0.492188 4.17969 0.492188 3.00781C0.492188 1.875 1.42969 0.9375 2.5625 0.9375C3.73438 0.9375 4.67188 1.875 4.67188 3.00781C4.67188 4.17969 3.73438 5.15625 2.5625 5.15625ZM17.9531 18.3984H14.3594V12.7344C14.3594 11.3672 14.3203 9.64844 12.4453 9.64844C10.5703 9.64844 10.2969 11.0938 10.2969 12.6172V18.3984H6.66406V6.71875H10.1406V8.32031H10.1797C10.6875 7.42188 11.8594 6.44531 13.6172 6.44531C17.2891 6.44531 17.9922 8.86719 17.9922 11.9922V18.3984H17.9531Z" fill="white"/>
<a href="https://www.linkedin.com/in/darius-namdaran/">
<rect fill="black" fill-opacity="0" y="-1.5" width="17.5" height="23"/>
</a>
</svg>
