<svg width="18" height="21" viewBox="0 0 18 21" fill="none" xmlns="http://www.w3.org/2000/svg">
<path d="M10.9219 20C10.7266 20.7422 9.94531 20.8984 9.24219 20.8984C8.5 20.8984 7.71875 20.7422 7.52344 20C7.21094 18.9062 6.74219 16.0938 6.74219 14.8047C6.74219 13.4375 7.95312 13.0859 9.24219 13.0859C10.4922 13.0859 11.7422 13.4375 11.7422 14.8047C11.7422 16.0938 11.2344 18.8672 10.9219 20ZM6.58594 12.1875C6.70312 12.3047 6.70312 12.4609 6.58594 12.5391C6.19531 12.8125 5.92188 13.1641 5.76562 13.5547C5.6875 13.6719 5.49219 13.7109 5.375 13.5938C4.28125 12.5781 3.61719 11.1328 3.61719 9.49219C3.61719 6.36719 6.19531 3.78906 9.39844 3.90625C12.3672 3.98438 14.7891 6.40625 14.8281 9.375C14.8672 11.0547 14.2031 12.5391 13.0703 13.5938C12.9531 13.7109 12.7578 13.6719 12.6797 13.5547C12.5234 13.1641 12.25 12.8125 11.8594 12.5391C11.7422 12.4609 11.7422 12.3047 11.8594 12.1875C12.5234 11.5234 12.9922 10.5469 12.9922 9.49219C12.9922 7.38281 11.1953 5.66406 9.08594 5.78125C7.13281 5.82031 5.57031 7.42188 5.49219 9.33594C5.41406 10.4688 5.88281 11.4844 6.58594 12.1875ZM9.24219 0.898438C14.0469 0.898438 17.9922 4.84375 17.9922 9.64844C17.9922 13.2031 15.9219 16.1328 13.0703 17.5391C12.875 17.6172 12.6797 17.4609 12.7188 17.3047C12.8359 16.6406 12.9141 15.9766 12.9531 15.4297C14.8281 14.2188 16.1172 12.0703 16.1172 9.64844C16.1172 5.85938 12.9922 2.77344 9.20312 2.8125C5.45312 2.8125 2.36719 5.85938 2.36719 9.60938C2.32812 12.0312 3.53906 14.1406 5.41406 15.3906C5.45312 15.4297 5.49219 15.4688 5.49219 15.5469C5.53125 16.0938 5.60938 16.6797 5.72656 17.3047C5.76562 17.4609 5.57031 17.6172 5.375 17.5391C2.52344 16.1328 0.492188 13.1641 0.492188 9.64844C0.492188 4.84375 4.39844 0.898438 9.24219 0.898438ZM9.24219 7.14844C10.6094 7.14844 11.7422 8.28125 11.7422 9.64844C11.7422 11.0547 10.6094 12.1484 9.24219 12.1484C7.83594 12.1484 6.74219 11.0547 6.74219 9.64844C6.74219 8.28125 7.83594 7.14844 9.24219 7.14844Z" fill="white"/>
<a href="https://podcasts.apple.com/gb/podcast/dyslexia-explored/id1387645599">
<rect fill="black" fill-opacity="0" y="-1.5" width="17.5" height="23"/>
</a>
</svg>
