<svg width="18" height="21" viewBox="0 0 18 21" fill="none" xmlns="http://www.w3.org/2000/svg">
<path d="M17.9922 9.10156H17.9531C16.1562 9.10156 14.5156 8.55469 13.1875 7.57812V14.5703C13.1875 18.0859 10.3359 20.8984 6.82031 20.8984C3.30469 20.8984 0.492188 18.0859 0.492188 14.5703C0.492188 11.0547 3.30469 8.20312 6.82031 8.20312C7.13281 8.20312 7.40625 8.24219 7.71875 8.28125V11.7969C7.40625 11.6797 7.13281 11.6406 6.82031 11.6406C5.21875 11.6406 3.89062 12.9688 3.89062 14.5703C3.89062 16.1719 5.21875 17.5 6.82031 17.5C8.42188 17.5 9.75 16.1719 9.75 14.5703V0.898438H13.1875C13.1875 0.9375 13.1875 0.9375 13.1875 0.976562C13.1875 1.25 13.1875 1.52344 13.2656 1.79688C13.5 3.08594 14.2812 4.21875 15.375 4.92188C16.1172 5.42969 17.0156 5.70312 17.9531 5.70312C17.9531 5.70312 17.9531 5.70312 17.9922 5.70312V9.10156Z" fill="white"/>
<a href="https://www.tiktok.com/@dyslexiaproductivity">
<rect fill="black" fill-opacity="0" y="-1.5" width="17.5" height="23"/>
</a>
</svg>
